<?xml version="1.0" encoding="UTF-8"?>
<svg id="Capa_2" data-name="Capa 2" xmlns="http://www.w3.org/2000/svg" viewBox="0 0 100 100">
  <defs>
    <style>
      .cls-1 {
        fill: #fff;
        stroke-width: 0px;
      }
    </style>
  </defs>
  <g id="Capa_1-2" data-name="Capa 1">
    <g>
      <path class="cls-1" d="M2.3,99.96c.11-.81.2-1.54.29-2.27.63-4.66,1.25-9.32,1.88-13.97.42-3.12.84-6.25,1.27-9.37.06-.42.09-.8-.13-1.21-2.42-4.64-4.05-9.55-4.91-14.71C0,54.19-.19,49.93.2,45.66c1.02-11.26,5.3-21.12,12.94-29.45C20.74,7.92,30.13,2.8,41.21.78,45.23.04,49.28-.15,53.35.11c16,.99,30.81,9.92,39.24,23.66,3.67,5.98,6,12.44,6.94,19.38,2.87,21.15-7.72,41.58-26.62,51.33-5.82,3-11.99,4.79-18.52,5.33-7.86.65-15.5-.3-22.86-3.23-.77-.31-1.51-.67-2.27-.98-.2-.08-.45-.12-.66-.09-7.73,1.31-15.45,2.64-23.18,3.96-.87.15-1.74.3-2.61.45-.14.02-.28.02-.51.04ZM12.53,89.75c.2-.02.3-.03.4-.05,5.47-.95,10.94-1.9,16.41-2.86.42-.07.77-.04,1.16.16,8.94,4.67,18.37,5.94,28.21,3.88,21.09-4.42,35.39-24.45,32.8-45.85-.84-6.96-3.28-13.31-7.32-19.04-9.61-13.61-26.1-20.31-42.36-16.94-13.51,2.79-23.38,10.57-29.49,22.92-4.02,8.12-5.04,16.74-3.41,25.66.94,5.15,2.87,9.93,5.56,14.42.19.32.31.62.26,1.02-.66,4.89-1.31,9.77-1.96,14.66-.09.65-.16,1.31-.25,2.03Z"/>
      <path class="cls-1" d="M25.55,38.63c.05-4.43,1.77-7.65,4.86-10.18.61-.5,1.28-.95,1.95-1.37.39-.25.82-.44,1.25-.59,1.26-.41,2.37-.09,3.17.96.39.51.72,1.09.96,1.69.94,2.35,1.85,4.71,2.73,7.08.46,1.24.34,2.48-.17,3.68-.59,1.38-1.57,2.46-2.78,3.32-.49.35-.63.72-.5,1.29.29,1.24.83,2.37,1.4,3.49,2.24,4.37,5.4,7.98,9.16,11.11,2.46,2.04,5.13,3.76,7.92,5.3.66.37,1.26.36,1.85-.12.26-.21.52-.42.76-.65,1.21-1.18,2.41-2.38,3.64-3.54.44-.41.95-.76,1.46-1.08,1.05-.66,2.11-.64,3.14.05.61.41,1.22.83,1.81,1.27,1.27.93,2.54,1.86,3.79,2.82.47.36.91.77,1.29,1.22.81.93.92,1.97.34,3.06-.16.31-.35.61-.56.87-.96,1.19-1.92,2.39-2.92,3.55-.44.51-.94.99-1.45,1.43-1.74,1.52-3.78,2.04-6.05,1.77-2.74-.32-5.33-1.19-7.88-2.19-13.04-5.11-22.04-14.29-27.32-27.2-.66-1.62-1.32-3.25-1.61-4.99-.13-.81-.2-1.63-.25-2.08Z"/>
    </g>
  </g>
</svg>