<?xml version="1.0" encoding="UTF-8"?>
<svg id="Capa_2" data-name="Capa 2" xmlns="http://www.w3.org/2000/svg" viewBox="0 0 150.19 100">
  <defs>
    <style>
      .cls-1 {
        fill: #3f67af;
        stroke-width: 0px;
      }
    </style>
  </defs>
  <g id="Capa_1-2" data-name="Capa 1">
    <g>
      <path class="cls-1" d="M37.46,56.58v2.37c.61.04,1.16.08,1.72.12.3.67.6,1.35.87,1.97-.26.61-.56,1.28-.85,1.96-.54.07-1.09.15-1.72.23v1.91c.66.46,1.32.91,1.94,1.34v3.03c-.62.05-1.17.09-1.88.14v3.05c.58.08,1.13.16,1.82.25v2.98c-.44.34-1.07.82-1.88,1.44v1.81h1.85c.07,1.14.12,2.13.18,3.2-.73.5-1.39.95-2.13,1.45,0,.58-.06,1.26,0,1.92.43,4.2-1.37,6.95-4.28,9.05-.67.48-1.22,1.18-1.82,1.77-1.11,1.08-2.22,2.16-3.55,3.45-2.67-2.19-5.33-4.25-7.84-6.5-.85-.76-1.42-1.98-1.98-3.09-.26-.51-.18-1.26-.25-1.94-1.04-.33-2.36-.09-2.78-2.17.77-.77,1.66-1.67,2.8-2.81v-1.45c-1.03-.54-2.66-.02-2.73-2.2-.08-2.4,1.82-1.8,2.81-2.48v-1.88c-1.27-.41-3.19-.17-2.69-3.2.66-.53,1.54-1.25,2.56-2.07v-2.24c-.45.31-.8.55-1.15.8-1.33-.23-1.61-1.28-1.5-2.91.75-.61,1.64-1.33,2.65-2.14v-2.08c-.71-.09-1.58-.21-2.56-.34v-2.83c.77-.41,1.66-.87,2.62-1.37v-5.26h-7.82c-2.44-2.12-2.84-5.42-3.86-8.12-.94-2.49-2-4.99-2.81-7.59-.89-2.85-1.5-5.77-2.27-8.66C-.3,22.78-.13,17.87.4,13.22,1.12,6.89,4.76,1.83,10.42.44c1.88-.46,3.48-.67,5.42-.07,1.79.55,3.66.72,5.34,1.77,1.57.99,3.37.98,5.03,1.6,1.44.54,2.95.86,4.78,1.38C35.18,1.34,40.27-.34,46.28.73c1.63.99,3.6,2.16,5.1,4.2,2.16,2.93,3.47,6.21,3.52,10.1.02,1.35-.05,2.71.01,4.06.25,5.13-.92,9.96-2.44,14.67-1.93,5.97-4.04,11.86-6.16,18.04h-9.5c1.56.76,2.52,1.23,3.63,1.77-.52,1.23-.9,2.12-1.28,3.01h-1.71ZM9.34,4.85c-.06.09-.36.88-.83,1.06-1.93.72-2.59,2.57-3.38,4.44-.95,2.25-1.35,4.54-1.43,7.05-.13,4.23.32,8.32,1.46,12.31.92,3.21,1.83,6.42,2.95,9.54,1.03,2.89,2.32,5.66,3.42,8.29h32.76c.25-3.85,2.07-6.97,3.25-10.3,2.62-7.38,4.22-14.89,3.84-22.9-.03-.61-.4-1.18-.46-1.8-.33-3.28-2.27-5.24-3.99-6.94-1.26-.41-2.18-.86-3.15-.99-3.48-.48-6.53.95-9.39,3.05-4.16,3.04-8.49,5.41-13.59,5.06-.69-.05-1.38,0-2.06,0,.13-.19.27-.38.4-.57-.58-.23-1.15-.45-2.05-.81,1.27-1.08,2.01-1.7,2.75-2.33-.1-.17-.2-.33-.31-.5h5.87c-5.45-2.65-10.23-4.88-16.06-3.64ZM33.87,64.65c-4.34.98-8.41,1.9-12.61,2.85.05.92.1,1.9.17,3.27,1.21-2.19,2.97-.56,4.31-1.7,1.04-.89,2.71-.75,4.1-1.12,1.36-.36,2.72-.77,4.04-1.15v-2.15ZM21.31,83.47c4.31-1.59,8.64-1.61,12.63-3.66-.1-.75-.19-1.46-.27-2.09-4.28,1.39-8.58,1.53-12.36,3.7v2.04ZM33.8,71.06c-4.32,1.8-8.73,1.52-12.38,3.65v1.73c4.31-.4,8.36-1.74,12.38-3.09v-2.28ZM33.72,52.98c.02-.11.04-.21.06-.32h-12.55c.07,1.42.13,2.68.19,3.9,4.26-1.24,8.28-2.41,12.3-3.58ZM21.34,63.07c4.06.16,7.58-2.82,11.63-2.42.37-.68.72-1.31,1.26-2.27-4.74-.71-8.53,2.7-12.88,2.26v2.43ZM33.75,84.27c-4.22,1.16-8.31,2.29-12.4,3.41v2.41c4.28-1.33,8.41-2.61,12.4-3.85v-1.97ZM29.34,92.39c-1.09-.86-1.93.97-2.65.98.15.5.35,1.17.46,1.56.92-1.07,1.56-1.81,2.18-2.53Z"/>
      <path class="cls-1" d="M127.39,20.76c1.5-1.11,3.09-1.96,4.58-2.96,1.5-1.01,3.35-.39,4.61-1.84,3.39-.39,6.42.94,8.97,3.27,3.13,2.86,4.59,6.89,4.63,11.55,0,.95-.01,1.9,0,2.84.09,4.71-1.21,9.01-2.5,13.41-1.04,3.56-2.8,7.02-2.41,11.04-.98,1.65-.73,3.53-.68,5.35.05,1.85-.61,3.55-.84,5.33-.54,4.09-1.17,8.21-2.62,12.11-.9,2.43-2.18,4.05-4.24,4.99-.6.27-1.17.64-1.66.91-3.54-1.16-5.07-4.21-6.04-7.72-.83-3-1.37-6.11-2.15-9.13-.49-1.9-.7-4.05-2.54-5.07-1.58,1.61-1.83,3.98-2.3,6.16-.8,3.67-1.53,7.36-2.87,10.81-.58,1.49-1.49,2.81-2.15,4.01h-3.98c-3.98-1.41-4.39-5.32-5.74-8.43-.61-1.42-.43-3.1-.83-4.49-.41-1.42-.44-2.77-.61-4.17-.8-6.82-1.62-13.65-3.75-20.13-1.19-3.64-2.35-7.33-3.08-11.08-.6-3.09-.52-6.53-.04-9.67.36-2.36,1.54-4.78,2.88-6.68,2.15-3.06,5.04-4.99,8.61-5.2,3.42-.2,6.49,1.26,9.64,2.42,2.09.76,4.09,2.06,6.42,1.69.21-.03.48.49.68.7ZM135.21,82.54c.64-1.26,1.72-2.12,2.47-3.53,1.8-3.42,1.67-7.32,2.65-10.91.34-1.22-.24-2.91.28-3.91.78-1.48.42-2.88.4-4.26-.02-1.38.8-2.48.72-3.72-.1-1.51.6-2.76.69-4.13.1-1.51.91-2.58,1.26-3.87,1.55-5.74,3.43-11.41,3.03-17.63-.16-2.5-.79-4.78-2.04-6.72-1.25-1.92-2.89-3.28-5.2-3.07-.43.04-.91-.6-1.29-.87-.53.39-.93.92-1.27.88-2.4-.25-4.25,1.13-6.09,2.58-1.36,1.07-2.64,2.58-4.15,3.02-1.7.49-3.25,1.6-4.99,1.72-1.93.14-3.88.03-5.81.03,0-1.69-.33-3.12,1.44-4.25h4.11c-1.51-1.03-3.31-1.27-4.48-2.39-1.41-1.34-3.3.29-4.4-1.48-1.63.32-3.26.65-5.06,1-1.12,1.49-2.32,3.11-3.53,4.69-1.03,1.34-.54,3-.76,4.51-.03.22-.44.37-.45.58-.08.9-.39,2.11-.02,2.65.61.88.55,1.71.53,2.61-.08,3.67.95,7.1,2.18,10.31,1.75,4.57,2.69,9.34,3.39,14.18.45,3.09.51,6.26.74,9.39.02.27-.07.58.01.8,1.45,3.61,1.46,7.91,3.99,10.96h2.06c.32-.95.71-1.86.93-2.82.74-3.3,1.3-6.66,2.15-9.93.83-3.21,1.71-6.48,4.57-8.32h3.71c.9,1.4,2.25,2.81,2.82,4.56.98,3.06,1.36,6.37,2.22,9.49.75,2.74.64,5.99,3.21,7.84Z"/>
      <path class="cls-1" d="M98.41,74.41h5.21c.37.96.75,1.94,1.23,3.15h-9.03c-.75-1.3-1-2.88-1-4.63,0-2.78-1.52-4.46-3.58-5.49-1.84-.92-3.48-.15-4.98,1.14-2.34,2.02-2.94,4.84-2.6,7.88-.37.43-.62.97-.87.97-4.05.05-8.1.04-12.31.04-.17-.2-.5-.58-.84-.98-.07-2.7.46-5.61-1.72-7.68-1.44-1.36-2.57-2.11-5.87-1.59-1.1,1.02-2.33,2.16-3.54,3.27-.36,2.13-.69,4.14-1.06,6.31-.12.14-.37.43-.64.74-2.75.68-5.7-.7-8.49,1.08-.73-.35-1.52-.74-2.39-1.16-.97-2.66-1.07-5.28-.32-8.22.52-2.05.65-4.19,1.58-6.16,2.01-4.26,4.83-7.54,8.63-9.44,1.34-.67,2.84-1.39,4.5-1.17,1.73.22,3.5.13,5.25.03,2.87-.17,5.48.55,7.91,2.39.98.74,2.16,1.13,3.29,1.7,2.94-2.64,6.16-4.44,10.05-4.09,1.04.09,2.1.01,3.15.01,4.73,0,7.12.84,11.76,4.22-.5,1.53,1.6,2.84.29,5.11-3.53-4.06-7.58-6.25-12.57-6.14-4.91.11-9.31,1.27-12.59,5.88-1.29-1.02-2.6-1.8-3.63-2.92-2.11-2.31-4.76-2.55-7.38-2.87-1.15-.14-2.33-.05-3.5-.02-5.9.18-10.15,3.26-12.57,9.59-.09.23-.47.41-.45.58.14,1.35-.38,2.5-.65,3.75-.31,1.39-.07,2.94-.07,4.76h6.16c.41-4.96,1.96-8.78,6.48-10.51,4.39-.53,8.79-.03,11.2,6.63v3.76h8.33c-.25-3.16.69-6.08,2.75-8.19,2.44-2.5,5.54-2.58,8.82-2.15,3.5,1.96,5.62,5.31,6.07,10.41Z"/>
    </g>
  </g>
</svg>