<?xml version="1.0" encoding="UTF-8"?>
<svg id="Capa_2" data-name="Capa 2" xmlns="http://www.w3.org/2000/svg" viewBox="0 0 100 100">
  <defs>
    <style>
      .cls-1 {
        fill: #3f67af;
        stroke-width: 0px;
      }
    </style>
  </defs>
  <g id="Capa_1-2" data-name="Capa 1">
    <g>
      <path class="cls-1" d="M8.61,92.5c.99-1.08,2.11-2.4,3.34-3.63,5.2-5.16,10.75-10.05,15.55-15.51,3.38-3.84,7.47-6.99,10.82-10.79,4.19-4.76,9.12-8.87,13.47-13.46,2.06-2.17,4.06-4.39,6.22-6.47,1.54-1.49,3.36-2.26,5.89-2.03,3.19-3.35,6.49-6.81,9.78-10.26v-1.89c-3.04-2.24-6.23-4.58-9.56-7.03.26-1.62,1.41-2.86,2.72-4.03,3.67-3.28,7.13-6.73,9.84-10.78.15-.22.41-.38.61-.58,1.97-2.01,3.94-4.02,5.91-6.03,2.73,2.71,5.41,5.38,7.74,7.7,2.2.49,4.15.53,5.58,1.36,1.42.82,2.33,2.43,3.48,3.72-1.61,2.78-3.52,5.08-5.56,7.39-3.49,3.97-7.78,7.27-10.86,11.57-.63.88-1.48,1.94-2.46,2.23-1.97.58-3.2,1.96-4.12,3.29-1.5,2.15-3.49,3.8-5.32,5.62-1.51,1.51-3.3,2.76-3.77,5.05-.21,1.03-1.24,1.99-2.09,2.81-2.5,2.44-5.31,4.63-7.61,7.22-4.29,4.83-9.44,8.92-13.71,13.7-3.41,3.81-7.5,6.97-10.8,10.8-3.42,3.97-7.37,7.43-11.1,11.09-1.04,1.02-1.82,2.28-2.79,3.37-1.93,2.14-4.29,3.37-6.14,3.02-4.77-1.43-5.52-3.99-5.06-7.44ZM15.57,97.5c.2-.31.54-1.09,1.11-1.67,4.78-4.78,9.5-9.62,14.48-14.22,1.42-1.32,2.02-3.39,4.18-4.02,3.37-5.13,8.65-8.67,12.71-13.26,5.54-6.26,11.94-11.86,17.55-17.34.36-1.15.48-1.79.76-2.36.33-.68.83-1.29,1.2-1.97.41-.75,2.13-.05,1.92-1.67-.07-.5,1.11-1.14,1.72-1.71,2.05-1.91,4.3-3.67,6.07-5.78,1.2-1.44,2.55-2.39,3.99-2.9,1.25-2.46,3.89-3.56,5.09-5.58,1.37-2.3,3.98-3.52,5.2-5.68,1.24-2.18,3.55-3.36,4.64-5.14v-2.55c-.83-.34-1.53-.62-2.43-.99-5.51,5.78-11.07,11.61-16.63,17.43v3.21c-2.91,2.72-5.78,5.39-8.65,8.06-.04,2.11-2.12,2.47-3.47,2.72-2.25.42-3.78,1.53-5.23,2.95-5.33,5.23-10.66,10.45-15.96,15.7-2.82,2.8-5.81,5.41-8.4,8.46-3.17,3.73-7.06,6.91-10.41,10.56-4.45,4.84-9.44,9.24-13.95,13.59.03,2.75,1.38,3.78,4.47,4.15ZM78.93,8.56c2.58,2.03,5.07,3.98,7.58,5.96.48-.54.91-1.01,1.49-1.67-2.75-1.95-5.27-3.74-7.77-5.51-.48.45-.78.73-1.31,1.22ZM82.41,5.94c2.37,1.9,4.53,3.61,6.17,4.93.7-.24,1.24-.42,1.86-.63-2.75-2.15-4.63-4.69-7.79-6.57-.12,1.1-.2,1.81-.24,2.26ZM84.16,16.78c-1.88-3.57-4.96-5.86-7.79-5.83-.01.26-.15.66-.02.77,2.18,1.82,4.39,3.6,6.63,5.42.41-.12.79-.24,1.18-.36ZM81.55,20.02c-1.76-3.33-5.24-5.92-8.07-5.82,1.34,3.1,4.98,3.79,6.81,6.21.48-.15.86-.26,1.26-.38ZM67.55,20.79c2.54,1.97,5.07,3.93,7.25,5.62.64-.29,1.14-.52,1.83-.83-2.79-2.18-5.27-4.11-7.74-6.04-.41.38-.82.76-1.34,1.25ZM71.07,18.33c2.32,1.76,4.52,3.43,6.2,4.71.71-.24,1.24-.42,2.03-.68-2.86-2.19-5.36-4.11-8.1-6.22-.05.87-.08,1.38-.13,2.19Z"/>
      <path class="cls-1" d="M20.82,30.59c2.55,2.86,5.23,5.86,7.98,8.96,1.41.38,2.97.8,5.11,1.38,3.44,3.53,7.28,7.47,11.32,11.62-1.05.46-2.02.87-2.77,1.2-1.12-1.27-1.97-2.26-2.86-3.21-1.56-1.68-3.35-3.12-4.69-5.05-1.44-2.07-4.08-2.88-6.6-3.36-4.67-2.71-6.45-8.08-11.43-10.45-.06-.03-.22.13-.38.22,2.74,4.56,7.31,7.59,11.14,11.63-.33,1.96.63,3.71,2.27,5.29,3.14,3.03,6.18,6.17,9.42,9.43-.61.68-1.04,1.16-1.5,1.66-.23-.09-.48-.13-.62-.27-3.49-3.51-7.04-6.96-10.4-10.57-1.01-1.09-1.5-2.61-2.68-4.74-3.26-3.31-7.21-7.33-11.18-11.34-1.23-1.24-2.54-2.36-4.32-2.97-3.57-1.22-5.83-3.61-7.28-6.91-.39-.89-.57-1.68-.69-2.57-.12-.86-.39-1.7-.67-2.84.16-.62.55-1.58.67-2.57.74-6.35,6.16-10.9,12.48-11.03,1.01-.02,2.03.05,3.04-.01,3.64-.24,6.25,1.47,8.84,3.59,4.32,3.54,4.83,8.15,4.23,12.9-.27,2.13-1.5,4.37-2.95,6.08-1.39,1.64-3.63,2.66-5.49,3.94ZM14.61,29.27c2.44-1.46,5.4-.49,7.49-2.46,2-1.88,3.37-4.05,4.53-6.08.73-4.59-.44-8.52-3.73-11.66-3.42-3.27-7.96-2.57-12.61-2.49-2.26,2.11-4.7,4.38-6.99,6.52,0,1.5.15,2.73-.03,3.92-.58,3.92,1.06,6.86,4.24,9.31,1.55,1.2,3.04,2.17,5.15,2.14.6-.01,1.21.49,1.95.81Z"/>
      <path class="cls-1" d="M49,71.34c.79-.73,1.2-1.11,1.7-1.58,6.01,5.88,12.29,11.54,17.9,17.73,2.77,3.06,5.97,5.69,8.66,8.82,1.58.31,3.1.65,4.24-.99v-2.68c-3.79-3.74-8.06-7.5-11.73-11.71-2.8-3.22-6.01-6.02-8.96-9.07-1.87-1.93-3.54-4.03-5.48-6.28.37-.4.81-.88,1.26-1.38.22.1.47.15.61.29,1.95,1.8,3.94,3.58,5.83,5.44,3.62,3.58,7.45,7.01,10.66,10.88,2.38,2.86,5.04,5.4,7.81,7.85,1.69,1.49,2.15,3.56,3.52,5.17-.42,1.16-.85,2.34-1.24,3.43-2.2,2.21-5,1.58-7.77,1.69-4.64-4.57-9.55-9.04-13.93-13.91-1.53-1.7-3.14-3.35-4.72-5.01-2.71-2.85-5.44-5.68-8.35-8.72Z"/>
    </g>
  </g>
</svg>