<?xml version="1.0" encoding="UTF-8"?>
<svg id="Capa_2" data-name="Capa 2" xmlns="http://www.w3.org/2000/svg" viewBox="0 0 100 100">
  <defs>
    <style>
      .cls-1 {
        fill: #3f67af;
        stroke-width: 0px;
      }
    </style>
  </defs>
  <g id="Capa_1-2" data-name="Capa 1">
    <g>
      <path class="cls-1" d="M99.41,99.13c-9.65.24-19.26.52-28.86.71-4.56.09-9.13.03-13.7.06-2.97.02-5.94.15-8.91.08-7.56-.18-15.11-.53-22.67-.66-6.84-.12-13.68-.02-20.51-.04-1.32,0-2.63-.11-4.34-.19-.15-1.41-.38-2.65-.39-3.89-.03-13.67-.04-27.33,0-41,.02-6.28,2.23-8.37,8.89-8.61,1.01-.04,2.02-.17,3.4-.3-.31-1.17-.45-2.12-.81-2.98-2.6-6.33-4.34-12.91-4.27-19.69.04-3.79.88-7.75,2.24-11.32C12.45,3.47,22.03-1.4,30.49.36c4.19.87,8.27,2.26,12.4,3.42,3.13.88,6.27,1.73,9.38,2.67,2.14.64,3.68-.63,5.43-1.34,3.54-1.43,7-3.31,10.7-4.07,7.58-1.57,14.58-.13,19.73,5.99,3.18,3.78,4.5,8.37,4.79,13.21.45,7.32-1.55,14.24-3.77,21.11-.39,1.21-.88,2.4-1.58,4.29,2.04,0,3.61-.07,5.17.01,4.37.23,7.18,2.57,7.21,6.67.11,15.1,0,30.2-.03,45.31,0,.27-.18.54-.51,1.5ZM46.77,9.97c.03-.4.05-.81.08-1.21-5.51-1.64-10.96-3.51-16.55-4.87-5.92-1.44-15.23,1.68-17.76,9.71-.81,2.58-1.46,5.3-1.56,7.98-.29,7.6,1.94,14.75,4.83,21.72,2.67,6.44,4.27,13.1,4.94,20.02.45,4.71.9,9.46,1.93,14.07.9,4.03,2.48,7.93,4.01,11.8.78,1.97,2.45,3.22,4.86,3.16,2.64-.06,4.08-1.71,4.87-3.8,1.08-2.82,1.81-5.76,2.75-8.63,1.39-4.23,2.62-8.53,4.34-12.63,1.13-2.7,3.18-5.15,6.59-5.06,3.29.08,5.4,2.28,6.66,5.05,1.25,2.75,2.31,5.59,3.26,8.45,1.27,3.82,2.28,7.72,3.54,11.55.82,2.49,1.86,5.32,5.01,5.4,3.43.09,5.04-2.69,6.26-5.38,2.22-4.92,3.16-10.14,3.64-15.46.92-10.32,2.46-20.51,6.53-30.22,2.87-6.84,4.61-13.96,4.14-21.43-.25-3.93-1.19-7.67-3.88-10.8-4.39-5.12-10.44-6.72-18.67-4.25-4.89,1.47-9.32,4.38-14.01,6.52-4.9,2.24-10.08,3.47-15.54,3.06-.71-.05-1.36-.84-2.04-1.29.59-.72,1.05-1.73,1.82-2.08.87-.4,2.04-.15,3.07-.29,2.3-.31,4.58-.7,6.88-1.05Z"/>
      <path class="cls-1" d="M24.45,65.74c.79-8.68-.53-16.9-4.77-24.66-1.63-2.98-2.49-6.45-3.22-9.79-1.72-7.93,3.41-13.81,11.76-14.17,5.93-.25,11.54.55,16.8,3.29,3.77,1.96,7.64,1.58,11.1-.35,5.62-3.14,11.65-3.2,17.74-2.79,5.5.37,9.71,4.97,10.02,10.38.28,4.72-.75,9.22-3,13.33-3.87,7.05-5.68,14.4-5.11,22.41.44,6.18-.43,12.33-1.87,18.36-.43,1.79-1.12,3.61-2.11,5.18-1.44,2.28-3.43,2.47-5,.33-1.22-1.68-1.78-3.85-2.45-5.86-1.86-5.58-3.42-11.27-5.52-16.76-.78-2.05-2.56-3.86-4.23-5.44-3.03-2.87-6-2.94-9.03-.09-1.65,1.56-3.19,3.54-3.96,5.62-1.94,5.26-3.37,10.69-5.07,16.03-.69,2.18-1.29,4.46-2.44,6.41-1.23,2.08-3.29,2.11-4.68.14-1.14-1.62-2.16-3.53-2.53-5.43-1.02-5.34-1.66-10.74-2.45-16.12ZM59.78,44.79c4.06,4.52,6.09,9.68,6.91,15.32.45,3.12.75,6.27,1.25,9.38.5,3.07.34,6.32,2.32,9.64.51-1.23.99-1.86,1.03-2.53.38-5.86,1.31-11.78.8-17.57-.44-5.02.34-9.6,1.54-14.35.87-3.44,1.28-7.05,1.39-10.6.16-5.13-2.46-7.42-8.66-7.86-.09,6.8-.97,13.45-6.59,18.58ZM35.3,25.78c-.97,4.94-.02,8.94,1.51,12.85.92,2.35,2.66,3.57,5.46,3.57,3.69,0,7.39.21,11.05.62,3.82.42,5.38-.13,7.44-3.29,2.54-3.89,3.14-8.14,2.81-13.29-2.33.59-4.41.79-6.16,1.63-4.37,2.09-8.62,2.5-13.2.56-2.67-1.13-5.6-1.69-8.9-2.65ZM31.69,26.98c-4.48.6-6.39,2.37-6.72,6.22-.34,4.06.54,7.97,1.46,11.91.94,4.02,2.24,8.23,1.83,12.21-.49,4.79.28,9.42.28,14.12,0,2.82.59,5.55,2.43,8.63.44-2.2.8-3.73,1.04-5.28,1.46-9.36,2.97-18.71,4.28-28.09.22-1.59.04-3.54-.74-4.91-2.13-3.77-2.85-7.83-3.42-11.96-.13-.95-.3-1.9-.46-2.85ZM36.44,61.68c.22.09.43.19.65.28.69-1.55,1.19-3.23,2.11-4.64,2.6-4,5.76-7.5,11.21-7.21,5.19.28,8.84,2.92,10.76,7.69.81,2,1.71,3.96,2.56,5.94.13-4.45-.77-8.63-2.62-12.54-1.42-3-3.88-4.89-7.33-5.69-4.7-1.09-9.34-.57-14.44-.47-1,5.75-1.95,11.2-2.9,16.64Z"/>
    </g>
  </g>
</svg>