<?xml version="1.0" encoding="UTF-8"?>
<svg id="Capa_2" data-name="Capa 2" xmlns="http://www.w3.org/2000/svg" viewBox="0 0 100 100">
  <defs>
    <style>
      .cls-1 {
        fill: #3f67af;
        stroke-width: 0px;
      }
    </style>
  </defs>
  <g id="Capa_1-2" data-name="Capa 1">
    <g>
      <path class="cls-1" d="M97.16,28.7c-.79-.33-1.52-.64-2.49-1.04,0-1.34-.08-2.82.02-4.29.29-4.41-1.29-8.33-3.65-12.14-2.27-3.67-6.55-6.08-10.47-7-5.94-1.39-9.48-.44-16.51,2.45-3.09,1.27-6.05,2.77-9.07,4.16-4.19,1.94-8.63,3.13-13.2,4.22-3.47.83-6.77.38-10.03.73-.86-1.52-.33-2.5,1.25-3.37,4.62.56,9.28-.51,13.89-1.93.02-.26.04-.52.09-1.02-4.83-.44-9.05-2.7-13.68-3.81-3.89-.94-7.69-2.38-11.84-2.16-7.52.39-14.27,4.23-16.78,11.35-.44,1.26-.92,2.42-.88,3.76.04,1.15.3,2.32-.81,3.4-.44.43-.4,1.85.06,2.31,1.36,1.34.8,2.85.73,4.23-.2,3.87,1.64,7.27,2.82,10.83.8,2.42,2.08,4.67,2.96,7.08,1.41,3.88,3.44,7.59,3.46,11.78,1.45,1.64.37,3.69,1.03,5.34.73,1.82.34,3.7.91,5.38.72,2.09.67,4.13.84,6.22.16,1.94.36,3.91.93,5.78,1.4,4.62,2.97,9.22,5.5,13.48.48.81,1.41,1.39,2.17,2.11h5.66c2.64-2.3,3.98-5.29,5.06-8.57,1.79-5.46,2.48-11.21,5.43-16.36.97-1.69,1.83-3.44,3.03-4.99.61-.79,1.85-1.19,3.19-2,1.38.16,3.12.34,4.85.58,2.78.4,3.3,2.78,4.45,4.42,1.95,2.79,3.02,5.97,3.76,9.22.82,3.63,2.15,7.13,2.94,10.79.54,2.52,1.79,5.28,5.08,6.88h4.26c2.92-1.91,4.99-4.51,6.1-7.72,1.88-.98-.11-3.27,1.8-4.24.34-4.03,1.93-7.89,1.89-11.98-.02-1.52.59-3.04.86-4.56.3-1.68-.56-3.45.62-5.09.96-1.33-.53-3.25,1.22-4.45-.12-3.29,1.15-6.32,2.39-9.33,1.56-3.77,3.32-7.48,5.02-11.27h2.33c.1.19.3.4.35.64.36,1.77-.52,3.39-1.31,4.81-2.48,4.48-4.02,9.16-5.25,14.02-.43,1.69-.22,3.49-.9,4.95-.74,1.57-.63,3.06-.81,4.61-.2,1.67-.66,3.31-.87,4.97-.21,1.67.25,3.36-.85,5.02-.53.81.02,2.14-.13,3.21-.12.86-.83,1.68-.83,2.52-.02,2.65-1.67,4.86-2.3,7.34-.31,1.22-1.06,2.34-1.55,3.51-1.29,3.13-5.52,7.17-10.05,6.37-.73-.13-1.51-.02-1.96-.02-3.66-1.64-6.18-3.91-7.37-7.17-.92-2.53-1.92-5.06-2.47-7.66-.9-4.26-2.54-8.34-3.86-12.49-.55-1.74-2.6-3.1-3.87-4.54h-2.16c-1.33,1.18-2.49,2.2-3.93,3.47,0,.06.15.71-.13,1.1-2.2,2.96-2.58,6.42-3.56,9.72-1.16,3.91-2.22,7.89-3.99,11.59-1.07,2.23-3.4,3.97-5.12,5.87h-6.84c-4.12-1.73-6.27-4.94-8.06-8.86-1.4-3.08-1.69-6.42-3.4-9.36-.19-.32-.05-.79-.1-1.19-.3-2.88-.25-5.84-1.04-8.62-.56-1.96-.65-3.86-.82-5.81-.17-1.94-.29-3.95-.96-5.77-1-2.71-.75-5.61-1.96-8.25-1.18-2.56-2.22-5.17-3.5-7.69-1.71-3.37-2.58-6.96-3.67-10.49C-.62,28.31.17,22.78.3,17.32c.08-3.41,2.09-6.63,4.52-9.29,2.78-3.06,6.04-5.76,10.74-6.4,1.32-1.52,3.38.01,5.05-1.05,1.34-.86,3.41-.83,4.93.46,7.24-.01,13.23,3.94,20.13,5.11.9.15,1.88.56,2.9.6.61.02,1.36-.2,1.81.04,3.88,2.04,6.35-.64,9.39-1.93,4.36-1.85,8.65-4.15,13.81-3.83,3.25.2,6.59-.5,9.71.83,2.02-.69,2.87,1.12,4.24,1.71,5.44,2.35,8.24,6.88,9.58,11.71.93,3.36,1.83,6.99,1.19,10.6-.17.98-.76,1.9-1.15,2.82Z"/>
      <path class="cls-1" d="M79.08,45.16c-.73-1.35-1.25-2.39-1.84-3.39-2.45-4.12-5.84-6.99-11.45-7.28-1.84-.09-3.63-.8-4.31-2.81,2.83-.79,5.67-1.03,8.32-2,4.4-1.6,6.88-4.63,8.31-8.4.98-2.61,1.48-5.36,2.19-8.05,2.91.41,1.77,2.61,2.61,3.65,1.2,1.48.26,2.89.86,4.21,4.93,8.29,9.76,9.34,16.24,10.29v2.15c-.93.28-2.1.92-3.3.96-6.05.23-12.24,5.91-13.05,10.9-.29,1.76-.83,3.5-1.3,5.38h-1.99q-1.28-2.59-1.28-5.61ZM81.4,22.01c-2.34,5.11-5.64,8.92-11.98,10.46,6.64,1.44,9.56,5.61,12.05,11.07,1.52-5.87,5.57-8.8,10.96-10.98-5.9-1.89-8.88-5.54-11.02-10.55Z"/>
      <path class="cls-1" d="M7.74,22.28c-.97-4.92.54-8.71,4.43-11.99,3.63-3.06,7.8-3.82,12.64-3.44v3.18c-1.37,0-2.86-.12-4.32.03-1.41.15-2.78.58-4.39.93-1.67,1.35-3.39,2.87-4.15,5.16-.23.68-.92,1.33-.76,2.15.3,1.55-.72,2.71-1.38,3.98h-2.07Z"/>
    </g>
  </g>
</svg>