<?xml version="1.0" encoding="UTF-8"?>
<svg id="Capa_2" data-name="Capa 2" xmlns="http://www.w3.org/2000/svg" viewBox="0 0 100 100">
  <defs>
    <style>
      .cls-1 {
        fill: #fff;
        stroke-width: 0px;
      }
    </style>
  </defs>
  <g id="Capa_1-2" data-name="Capa 1">
    <path class="cls-1" d="M50.01,0c8.62,0,17.24-.03,25.86.02,2.45.01,4.84.48,7.18,1.27,1.76.6,3.45,1.36,5.03,2.34,1.08.67,2.1,1.45,3.1,2.24,1.48,1.17,2.73,2.58,3.86,4.07,1.47,1.94,2.62,4.06,3.45,6.35.66,1.8,1.14,3.65,1.31,5.56.09,1,.19,1.99.19,2.99.01,16.94.02,33.88,0,50.82,0,1.77-.19,3.54-.69,5.25-.39,1.33-.76,2.69-1.3,3.96-.53,1.24-1.22,2.43-1.91,3.59-.84,1.42-1.91,2.67-3.05,3.87-1.6,1.66-3.38,3.07-5.37,4.25-1.86,1.11-3.85,1.91-5.93,2.5-1.47.42-2.98.7-4.51.77-1.17.05-2.34.12-3.52.12-16.26,0-32.52.01-48.78,0-2.07,0-4.13-.23-6.15-.76-1.47-.38-2.9-.89-4.29-1.52-1.81-.82-3.49-1.87-5.05-3.1-1.39-1.1-2.68-2.33-3.77-3.73-.82-1.06-1.59-2.17-2.3-3.32-1.13-1.81-1.9-3.78-2.47-5.83-.4-1.43-.73-2.89-.76-4.38-.07-3.1-.13-6.19-.13-9.29C0,53.57,0,39.08.02,24.58c0-2.49.4-4.94,1.19-7.33.64-1.92,1.46-3.75,2.53-5.47.89-1.44,1.94-2.77,3.1-4,1.42-1.49,2.97-2.83,4.72-3.9,1.21-.74,2.51-1.36,3.8-1.96,1.71-.79,3.53-1.28,5.39-1.56,1.2-.19,2.42-.33,3.64-.33,8.54-.03,17.08-.01,25.62-.01ZM59.68,82.09h0c0-5.77,0-11.55,0-17.32,0-.53,0-.54.54-.54,3.58,0,7.17,0,10.75,0,.35,0,.48-.11.53-.45.23-1.6.47-3.19.72-4.78.45-2.9.9-5.8,1.35-8.71q.09-.57-.48-.57c-4.3,0-8.6,0-12.9,0-.5,0-.51,0-.51-.5,0-2.97-.01-5.95.01-8.92,0-.71.07-1.43.21-2.13.56-2.78,2.17-4.61,4.92-5.41,1.06-.31,2.15-.39,3.25-.4,1.92-.02,3.85-.01,5.77,0,.31,0,.44-.09.42-.41-.02-.44,0-.88,0-1.31,0-3.4,0-6.8,0-10.2,0-.31-.08-.44-.41-.48-1.22-.14-2.44-.34-3.66-.47-2.69-.29-5.38-.51-8.09-.42-1.66.06-3.31.25-4.92.65-3.22.81-6.05,2.3-8.34,4.76-1.88,2.02-3.11,4.38-3.89,7-.71,2.41-.94,4.88-.95,7.38-.02,3.45,0,6.89,0,10.34,0,.51,0,.52-.52.52-3.88,0-7.77,0-11.65,0q-.56,0-.56.58c0,4.46,0,8.92,0,13.38q0,.55.55.55c3.91,0,7.81,0,11.72,0,.45,0,.46.01.46.47,0,.13,0,.25,0,.38,0,11.41,0,22.82,0,34.22q0,.62.6.62c4.84,0,9.68,0,14.52,0q.56,0,.56-.55c0-5.76,0-11.52,0-17.29Z"/>
  </g>
</svg>