<?xml version="1.0" encoding="UTF-8"?>
<svg id="Capa_2" data-name="Capa 2" xmlns="http://www.w3.org/2000/svg" viewBox="0 0 100 100">
  <defs>
    <style>
      .cls-1 {
        fill: #3f67af;
        stroke-width: 0px;
      }
    </style>
  </defs>
  <g id="Capa_1-2" data-name="Capa 1">
    <g>
      <path class="cls-1" d="M62.07,96.7h4.2c.8-.77,1.59-1.52,2.53-2.42.56.71,1.13,1.42,1.84,2.31-1.25,1-2.74,2.2-4.04,3.25-.57.03-.84.03-1.11.06-5.5.55-8.1-1.29-10.42-7.37-1.46-3.82-2.32-7.86-3.51-11.77-.95-3.13-1.94-6.35-3.91-9.22-.67-.97-1.59-1.7-2.16-2.69h-2.27c-4.05,2.24-4.67,6.26-5.55,9.8-1.12,4.47-2.63,8.84-3.56,13.36-.33,1.61-1.59,3.11-2.67,4.49-.99,1.26-2.31,2.28-3.47,3.4-2.57-.05-5.17.38-7.52-1.07-4.03-2.89-5.45-7.41-6.99-11.76-.96-2.7-1.74-5.53-1.77-8.47-.02-1.76-1.05-3.37-.87-5.25.17-1.74.35-3.52-.67-5.29-.53-.91.01-2.35-.13-3.53-.11-.97-.68-1.89-.77-2.86-.25-2.71-2.4-10.72-3.55-13.33-2.16-4.91-3.9-9.89-4.98-15.18C-.16,28.95-.1,24.81.2,20.73c.28-3.89,1.6-7.95,4.59-10.83,3.32-3.21,7.03-6.14,12.2-6.37,1.28-.06,2.71-.99,3.79-.67,3.6,1.06,7.39,1.32,10.91,2.66,3.34,1.27,6.74,2.44,10.2,3.35,2.52.66,5.18.83,7.48,1.17,6.88-4.63,13.92-7.34,22.45-6.29-.42,1.01-.79,1.88-1.25,2.99-1.52,0-3.18.18-4.78-.04-1.98-.27-3.94.28-5.38,1.05-3.16,1.69-6.53,2.95-9.61,4.84-2.98,1.83-6.48,2.86-9.98,3.85-4.07,1.15-8.04,1.61-12.15,1.38-.77-1.38-.14-2.29,1.04-3.16,4.33.41,8.63-.26,13-2.07-.46-.33-.88-.89-1.31-.9-4.28-.14-7.84-2.49-11.84-3.5-2.28-.58-4.45-1.45-6.86-1.46-.63,0-1.32-.16-1.87-.45-.94-.5-1.69-.52-2.58.16-1.3.99-2.96.09-4.58.99-4.03,2.26-6.57,4.47-8.73,8.46-.47.87-.51,1.66-.76,2.5-1.76,5.77-.9,11.56.14,17.25.63,3.46,2.23,6.79,3.63,10.08,1.71,4.04,3.1,8.09,3.87,12.43.66,3.76,1.42,7.46,1.72,11.29.15,1.84.53,3.75.69,5.65.15,1.76.57,3.53.93,5.22.9,4.2,1.79,8.5,4.08,12.29.94,1.55,2.36,2.82,3.48,4.13h4.52c2.17-2.44,3.62-5.23,4.53-8.49,1.34-4.77,2.33-9.63,4.04-14.31.92-2.51,2.53-4.59,3.99-6.77.44-.65,1.51-.92,2.46-1.46h4.14c.95.94,2.05,1.95,3.04,3.05.59.65,1.08,1.42,1.48,2.2,2.59,5.12,4.39,10.52,5.72,16.05.91,3.79,2.38,6.8,5.43,9.72Z"/>
      <path class="cls-1" d="M76.26,41.5c7.2,3.92,14.42,6.57,22.58,6.75.27.27.66.65,1.14,1.13,0,4.9.07,9.93-.03,14.94-.05,2.15-1.15,4.19-.82,6.43.33,2.21-1.2,4.06-1.57,6.1-.43,2.4-2.12,3.99-3.36,5.83-4.01,5.92-9.98,9.71-16.27,13.21h-3.22c-4.11-3-8.62-5.5-12.27-9.12-3.26-3.22-5.34-7.08-7.25-11.05-.64-1.32-.84-2.89-.98-4.37-.32-3.33-1.14-6.6-.91-10,.23-3.43.05-6.88.05-10.32,0-1.04-.28-2.2,1.87-2.79,3.34.7,7.11-1.01,10.9-1.87,3.51-.79,6.64-3.12,10.15-4.87ZM55.6,51.6c.37,4.82.76,9.34,1.05,13.87.13,2.04.24,4.01.74,6.06,1.25,5.15,3.63,9.59,7.37,13.42,3.48,3.57,8.12,5.66,12.26,9.07.95-1.07,1.58-2.44,2.58-2.76,1.59-.51,2.41-1.91,3.96-2.42,1.34-.45,1.9-1.99,3.44-2.61,1.28-.52,1.89-2.4,3.03-3.45,4.45-4.08,5.93-9.46,6.49-14.92.55-5.37.12-10.83.12-16.13-.43-.41-.72-.69-1.12-1.07-6.91.08-12.94-2.92-18.94-5.69-3.24,1.68-6.62,2.83-10,4.02-3.44,1.21-7.15,1.26-10.98,2.6Z"/>
      <path class="cls-1" d="M78.25,27.92v3.25q-1.93.09-3.2-.87c.06-6.01-2.97-10.02-9.51-12.42h-2.68c-.5-.5-.87-.88-1.49-1.51.69-.58,1.29-1.48,1.98-1.57,1.2-.14,2.27-.61,3.39-.81,3.54-.64,5.84-3.02,7.41-7.9.26-.82.63-1.62.8-2.45.13-.64.03-1.32.03-1.76.49-.65.88-1.16,1.41-1.86.74.57,1.24.95,1.86,1.42v2.95c.73,1.27,1.31,2.1,1.7,3.01.19.43.03,1,.03,1.35.56.53.99.87,1.33,1.29,2.16,2.58,4.95,4.09,8.34,4.73.78.15,1.46.82,3.04,1.76-1.38.34-2.11.52-2.83.69-6.08.4-9.17,4.54-11.61,10.71ZM84.68,15.67c-4.56-.39-5.71-3.84-7.74-6.54-2.01,2.68-3.48,5.66-7.01,6.8,2.56,2.08,5.25,3.94,6.76,7.27,1.95-3.43,4.61-5.47,8-7.54Z"/>
      <path class="cls-1" d="M83.6,41.98c-2.19-.91-2.44-2.49-1.86-3.53,1.34-2.44,1.09-5.16,1.92-7.6.9-2.64-.04-5.2.72-8,.45-.4,1.16-1.02,1.95-1.71.35.41,1.14.92,1.1,1.36-.27,2.94.91,6-.77,8.81.39,3.12-1.66,5.81-1.73,8.88-.01.59-.83,1.17-1.32,1.8Z"/>
      <path class="cls-1" d="M65.67,30.7c-1.52.73-2.5,1.21-3.89,1.88-.82.89-.58,3.11-2.99,3.72-.45-1.21-.9-2.43-1.39-3.74-1.02-.49-2.15-1.03-3.4-1.63.71-1.82,3.05-1.35,4.24-3.3.05-.46.18-1.53.31-2.68,1.97.33,2.41,1.39,2.26,3.1,1.33.73,2.76,1.51,4.86,2.65Z"/>
      <path class="cls-1" d="M60.41,53.86c4.51-.71,8.93-1.73,12.95-3.82,2.32-1.2,4.28-1.3,6.57-.03,1.99,1.1,4.2,1.82,6.3,2.71,1.93.33,3.88.67,5.86,1.02.64.63,1.32,1.3,2.02,1.99.48,4.52-.72,9.01-1.01,13.53-.28,4.37-2.21,8.66-5.67,12.02-3.23,3.12-6.71,5.92-10.7,8.44-7.84-4.11-13.32-10.2-16.73-18.55,0-2.17.07-4.83-.03-7.48-.05-1.37.02-2.66-.63-4.12-.72-1.6-.46-3.8,1.07-5.7ZM76.98,85.77c1.52-1.23,2.85-2.87,4.6-3.57,2.74-1.11,3.73-3.59,5.38-5.46,1.7-1.93,2.83-4.5,2.96-7.1.22-4.45.06-8.92.06-13.46-5.3-.12-9.57-2.71-14.16-4.17-3.88,3.2-9.21,2.66-13.37,5.09.38,3.57-.31,7,.73,10.5.59,1.98.62,4.16,1.52,6.16,2.39,5.33,6.35,9.18,12.28,12Z"/>
    </g>
  </g>
</svg>