<?xml version="1.0" encoding="UTF-8"?>
<svg id="Capa_2" data-name="Capa 2" xmlns="http://www.w3.org/2000/svg" viewBox="0 0 120 100">
  <defs>
    <style>
      .cls-1 {
        fill: #fff;
        stroke-width: 0px;
      }
    </style>
  </defs>
  <g id="Capa_1-2" data-name="Capa 1">
    <g>
      <path class="cls-1" d="M0,87.28c0-24.91,0-49.82,0-74.73.19-.29.48-.55.57-.87C2.71,4.4,8.17,0,15.12,0,45.16,0,75.19,0,105.23,0c6.5,0,11.94,4.24,14.12,10.95.12.38.43.69.65,1.03v76.13c-.19.23-.46.43-.56.7-2.45,7.19-7.62,11.18-14.62,11.18-29.93,0-59.86.01-89.79,0-6.89,0-12.41-4.52-14.48-11.75-.1-.35-.37-.64-.56-.96ZM100.24,31.78c-.49.42-.82.69-1.14.98-12.31,10.92-24.63,21.84-36.94,32.76-1.73,1.53-2.54,1.53-4.24.02-10.57-9.38-21.14-18.77-31.71-28.15-2.08-1.85-4.18-3.68-6.41-5.66v62.67h80.44V31.78ZM14.69,94.44c0-.67,0-1.27,0-1.87,0-21.98,0-43.96,0-65.94,0-1.39.24-2.59,1.5-3.25,1.16-.61,2.11-.12,3.02.69,9.85,8.75,19.69,17.49,29.54,26.24,3.74,3.32,7.48,6.63,11.25,9.97.29-.22.54-.38.76-.58,10.57-9.38,21.14-18.77,31.71-28.16,2.92-2.59,5.85-5.17,8.78-7.75.83-.73,1.73-.9,2.71-.37.98.54,1.39,1.43,1.38,2.6,0,.42,0,.84,0,1.25,0,21.79,0,43.59,0,65.38,0,.58,0,1.16,0,1.74,5.67-.06,9.76-4.68,9.79-10.94.03-7.2,0-14.41,0-21.61,0-15.01,0-30.02,0-45.03,0-5.7-2.89-9.84-7.74-10.99-.59-.14-1.45.06-1.91.47-14.29,12.66-28.55,25.37-42.81,38.07-2.37,2.11-2.91,2.13-5.22.07C43.17,31.72,28.87,18.99,14.55,6.3c-.44-.39-1.23-.6-1.78-.47-4.68,1.05-7.73,5.24-7.73,10.54,0,22.3,0,44.61,0,66.91,0,6.37,3.64,10.65,9.65,11.16ZM98.19,5.67H21.9c12.85,11.45,25.49,22.7,38.14,33.97,12.71-11.32,25.33-22.55,38.15-33.97Z"/>
      <path class="cls-1" d="M90.19,54.56c-.59.94-.9,1.81-1.47,2.32-5.69,5.08-11.42,10.12-17.16,15.13-1.3,1.14-2.83.98-3.71-.27-.89-1.26-.68-2.9.6-4.03,5.68-5.02,11.38-10.02,17.07-15.04.9-.79,1.93-1.2,2.9-.47.69.52,1.13,1.46,1.77,2.35Z"/>
      <path class="cls-1" d="M96.79,48.43c-.02,1.61-1.86,3.48-3.39,3.45-1.34-.03-2.45-1.31-2.43-2.81.02-1.58,1.91-3.48,3.42-3.45,1.37.03,2.41,1.26,2.39,2.8Z"/>
    </g>
  </g>
</svg>