<?xml version="1.0" encoding="UTF-8"?>
<svg id="Capa_2" data-name="Capa 2" xmlns="http://www.w3.org/2000/svg" viewBox="0 0 100 100">
  <defs>
    <style>
      .cls-1 {
        fill: #3f67af;
        stroke-width: 0px;
      }
    </style>
  </defs>
  <g id="Capa_1-2" data-name="Capa 1">
    <g>
      <path class="cls-1" d="M6.2,57.93c-1.83,2.08-4.94,2.8-5.77,6.57-1.02-5.14-.12-9.49,1.32-13.72,1.56-4.59,6.57-6.89,11.03-5.33.59.21,1.28.1,2.38.16-1.02-2.58-1.88-4.76-2.78-7.05-2.34-.08-4.69.42-6.52-1.37v-2.15c.92,0,1.86-.15,2.73.04.84.19,1.61.75,2.73,1.3.14-.94.34-1.47.28-1.96-.22-1.78-.51-3.56-.81-5.33-.28-1.64.68-3.45-.71-4.96-.28-.31-.19-1.13-.09-1.68.21-1.21.63-2.38.78-3.59.14-1.15-.41-2.71.13-3.41.94-1.22.28-2.61.8-3.62,1.59-3.09,3.38-6.13,6.09-8.25C20.98,1.08,25.28-.3,29.56.06c2.92.25,5.78.98,8.64,2.07,3.09,1.18,6.2,2.55,9.51,3.15,1.87.34,3.67,1.13,5.67,1.76,4.03-1.98,8.18-4.03,12.58-6.19,1.68-.07,3.6-.25,5.57-.71,1.76-.41,3.82.58,6.18,1.03,1.13.77,2.66,1.78,4.15,2.86,3.57,2.6,5.37,6.03,6.61,10.6.61,2.26.79,4.44.7,6.67-.14,3.53.57,7.12-.73,10.61-.41,1.11-.06,2.54-.06,3.8,2.25.86,4.51-2.54,6.45.58-1.63,2.92-4.44,2.1-7.34,2.31-.82,2.06-1.69,4.28-2.75,6.96,1.34,0,2.4.3,3.14-.09.72-.38,1.33-1.03,2.17-.77,1.83.56,3.73,1.04,5.43,1.92.85.44,1.44,1.62,1.97,2.58,1.7,3.02,2.81,6.22,2.52,9.85-.13,1.56-.02,3.15-.02,5.5-1.88-3.41-3.76-6-6.77-6.63-2.73-.57-5.58-2.27-8.41-.19-4.53-.09-8.56,1.78-12.61,3.61-3.89-.37-7.35,2.37-11.27,1.75-6.28,1.83-12.72,1.04-19.02.72-6.67-.35-13.25-2.08-19.55-4.69-1.81-.75-3.7-1.13-5.67-1.41-2.08-.3-4.38-1.45-6.19-.55-1.51.75-2.89.29-4.25.78ZM37.13,11.81c-.12-.15-.25-.29-.37-.44,1.51,0,3.02.11,4.51-.03,1.27-.13,2.51-.73,3.78-.79,1.42-.07,2.55-.51,3.49-1.52-1.6-.55-3.19-1.04-4.75-1.63q-10.22-3.91-18.66-3.91c-.26,0-.53.05-.64.06-1.45.88-2.8,1.67-4.12,2.5-.78.49-1.71.86-2.26,1.57-4.27,5.5-5.62,12.01-4.7,18.85.41,3.07,1.33,6.13,1.72,9.22.33.35.62.66.86.91,3.18.41,6.3.82,9.75,1.27v-6.33c4.27,0,8.24-.05,12.22.04.85.02,1.69.5,2.57.78v5.15h19.01v-4.7c.44-.46.73-.77,1.11-1.18h13.37c.35.74.69,1.46,1.04,2.21-1.16,1.07-.7,2.43-.53,3.96,3.33-.45,6.46-.88,9.59-1.31.3-.32.77-.58.85-.94.92-4.07,1.07-8.26,1.67-12.38.51-3.46-.62-6.95-1.66-10.17-1.71-5.29-5.73-8.47-10.76-9.42-5.34-1-10.36,1.04-14.84,4.03-6.97,4.65-14.37,7.45-22.21,6.65-.68-.24-1.36-.49-2.04-.73l.07-.83c.64-.29,1.29-.59,1.93-.88ZM19.25,47.07c.82.38,1.63.79,2.46,1.11,3.85,1.51,7.55,3.6,11.81,3.54,2.48,1.52,5.19,1.81,7.98,1.73,2.81-.08,5.44,1.31,8.32.92,2.22-.3,4.44-.34,6.69-.74,2.57-.46,5.26-.58,7.87-1.07,1.14-.21,2.24-.76,3.37-.81,1.22-.05,2.26-.58,3.38-.86,3.12-.78,6.08-2.02,9.19-3.21,1.31-2.52,2.46-5.15,3.14-7.95-2.9.29-5.49.55-8.11.82-.26.28-.55.59-.99,1.05v4.89c-4.53,1.77-9.18.28-13.56.9l-1.43-1.52v-4.7c-6.17,0-12.2,0-18.22,0-.12,0-.25.07-.35.14-.11.08-.19.2-.29.31,0,1.46,0,2.92,0,4.38-.39.41-.78.83-1.12,1.19h-13.66c.4-2.04-2.11-3.75-.21-5.7-1.09-1.83-2.75-1-4.15-1.2-1.51-.22-3.02-.45-4.75-.71-.28,2.99,2.13,4.9,2.64,7.49ZM37.97,34.31h-9.63v10.24c3.42.53,6.51-.16,9.63-1.07v-9.17ZM62.79,44.68c3.03-.02,6.05.07,8.93-.06v-10.46c-1.63,0-3.13-.02-4.62,0-1.45.02-2.89.08-4.32.12v10.39Z"/>
      <path class="cls-1" d="M49.57,68.04c-1.78,1.66-2.64,3.32-3.39,5.39-1.59,4.39-2.75,8.82-3.21,13.48-.14,1.46-3.12,8.97-4.2,9.93-1.45,1.3-3.22,2.2-4.69,3.16-1.4-.37-2.55-.59-3.64-.98-3.59-1.28-5.22-4.62-6.32-7.93-1.28-3.84-2.87-7.73-2.58-12.01-1.18-2.09-.17-4.68-.98-6.57-.93-2.19-.17-4.27-.73-6.26-.5-1.77-.97-3.49-.71-5.43,1.22-.94,2.18-.33,3.18.91.29,1.86-.05,3.94.79,6.01.69,1.7-.27,3.88.86,5.77.44.73-.03,2.01.09,3.02.56,4.77,1.28,9.47,3.24,13.9,1.07,2.41,2.87,4.05,4.52,5.94h2.47c2.36-1.87,3.67-4.51,4.62-7.48,1.33-4.13,2.09-8.41,3.15-12.61,1.02-4.04,2.44-7.55,5.42-10.47h5.07c3.46,3.08,5.1,7.52,6.12,12.26.83,3.87,1.8,7.71,2.64,11.57.56,2.57,2.09,5.14,4.59,6.78,4.07.54,5.49-2.64,7.58-6.86.93-1.88,1.26-4.13,1.69-6.25.41-2.04.7-4.12.81-6.2.09-1.69,1.21-3.06.94-4.9-.22-1.45-.46-3.09.7-4.49.34-.41-.02-1.42.07-2.14.19-1.63.45-3.25.65-4.66.98-.5,1.65-.84,2.35-1.2.34.36.73.77,1.11,1.17-.27.32-.75.62-.78.97-.33,3.23-.49,6.48-.88,9.7-.44,3.57-.89,7.16-1.67,10.65-.95,4.2-1.8,8.43-4,12.26-1.55,2.71-3.63,4.42-6.26,5.34-1.66.57-3.21-.74-4.72-1.45-.69-.32-1.27-.91-2.13-1.55-1.17-3.03-2.99-6.14-3.73-9.81-.58-2.91-1.44-5.79-2.11-8.68-.62-2.68-1.53-5.2-2.67-7.6-.52-1.09-1.96-1.68-3.24-2.7Z"/>
    </g>
  </g>
</svg>